<?xml version="1.0" standalone="no"?>
<!DOCTYPE svg PUBLIC "-//W3C//DTD SVG 20010904//EN"
 "http://www.w3.org/TR/2001/REC-SVG-20010904/DTD/svg10.dtd">
<svg version="1.0" xmlns="http://www.w3.org/2000/svg"
 width="512.000000pt" height="512.000000pt" viewBox="0 0 512.000000 512.000000"
 preserveAspectRatio="xMidYMid meet">
<metadata>
Created by potrace 1.14, written by Peter Selinger 2001-2017
</metadata>
<g transform="translate(0.000000,512.000000) scale(0.100000,-0.100000)"
fill="#000000" stroke="none">
<path d="M0 4472 l0 -649 22 -20 c13 -11 66 -48 118 -83 122 -81 155 -108 336
-264 82 -71 185 -156 229 -188 l80 -59 51 -152 c104 -306 172 -428 382 -691
l54 -66 38 78 c80 166 241 390 393 547 211 218 493 502 699 703 l216 211 -61
39 c-77 48 -195 101 -307 138 -82 27 -92 28 -305 29 -167 0 -226 4 -245 14
-42 24 -222 152 -280 200 -129 107 -524 549 -648 725 -20 28 -52 70 -70 94
l-34 42 -334 0 -334 0 0 -648z"/>
<path d="M2625 3147 c-48 -27 -65 -57 -65 -118 0 -63 66 -161 206 -309 182
-190 214 -228 176 -201 -17 12 -44 38 -58 56 -32 42 -193 174 -297 244 -168
113 -264 136 -342 83 -49 -33 -75 -83 -75 -140 0 -95 15 -113 403 -493 199
-195 409 -402 467 -460 131 -132 189 -169 266 -169 66 0 101 17 138 64 39 52
56 100 58 159 2 63 -32 133 -102 211 -66 74 -81 97 -45 66 17 -13 44 -37 60
-52 51 -46 162 -98 209 -98 152 1 231 156 150 296 -36 63 -82 107 -430 414
-65 58 -153 137 -194 176 -109 102 -236 211 -280 240 -41 27 -127 54 -175 54
-16 0 -48 -10 -70 -23z m386 -674 c13 -16 12 -17 -3 -4 -17 13 -22 21 -14 21
2 0 10 -8 17 -17z m264 -243 c27 -27 47 -50 44 -50 -3 0 -27 23 -54 50 -27 28
-47 50 -44 50 3 0 27 -22 54 -50z"/>
<path d="M2070 2594 c-53 -18 -115 -80 -124 -125 -13 -65 29 -150 128 -260 23
-25 80 -95 128 -155 106 -134 253 -292 389 -420 57 -53 111 -108 120 -123 24
-39 124 -121 161 -132 74 -21 201 26 243 89 37 56 41 106 14 177 -20 54 -39
77 -193 230 -94 94 -215 215 -268 270 -154 161 -389 383 -443 419 -63 43 -98
49 -155 30z"/>
<path d="M1883 2130 c-94 -57 -67 -156 92 -338 30 -35 55 -67 55 -71 0 -5 61
-73 136 -152 75 -79 163 -177 195 -217 70 -87 102 -115 160 -142 53 -24 80
-25 145 -5 52 15 106 62 119 103 4 13 2 44 -5 70 -13 55 -69 116 -427 461
-259 249 -304 285 -373 300 -64 14 -59 14 -97 -9z"/>
</g>
</svg>
